<svg width="132" height="56" viewBox="0 0 132 56" fill="none" xmlns="http://www.w3.org/2000/svg">
<g clip-path="url(#clip0_1244_2763)">
<path fill-rule="evenodd" clip-rule="evenodd" d="M18.0559 40C27.9021 40 35.958 31.959 35.958 22.0513C35.958 12.1436 27.9021 4.10254 18.0559 4.10254C8.17395 4.10254 0.153809 12.1436 0.153809 22.0513C0.153809 31.959 8.17395 40 18.0559 40Z" fill="#2B3131"/>
<path fill-rule="evenodd" clip-rule="evenodd" d="M18.0559 9.71155C24.2097 9.71155 28.3869 14.4605 28.3869 19.5833C28.3869 21.64 27.9393 23.4348 26.895 25.6784C20.7785 25.6784 19.6596 29.7543 19.3985 32.484L19.212 34.391H16.8997L16.7132 32.484C16.4521 29.7543 15.3332 25.6784 9.2167 25.6784C8.17241 23.4348 7.72485 21.64 7.72485 19.5833C7.72485 14.4605 11.902 9.71155 18.0559 9.71155Z" fill="white"/>
<path fill-rule="evenodd" clip-rule="evenodd" d="M52.0699 9.71155C46.2517 9.71155 41.8881 13.2639 41.9254 19.4338H47.3333C47.2587 16.9658 48.8252 14.5727 52.0699 14.5727C54.5315 14.5727 56.0979 16.218 56.0979 18.312C56.0979 20.4808 54.3823 21.6774 51.6224 23.0235C48.0047 24.781 45.8415 25.6036 41.9254 26.9124V34.0171H61.3193V29.156H49.2354C51.1047 28.3752 52.9248 27.5167 54.5688 26.7254C58.9324 24.6314 61.5058 22.2756 61.5058 18.0502C61.5058 12.9648 57.7016 9.71155 52.0699 9.71155ZM69.8974 14.9466H81.0862V10.0855H64.676V34.0171H69.8974V14.9466ZM88.9184 10.0855H83.697V34.0171H88.8811L98.6154 18.7233V34.0171H103.837V10.0855H98.6154L88.9184 25.3793V10.0855ZM130.056 25.0427H124.648C123.827 27.6977 121.329 29.5299 118.382 29.5299C114.093 29.5299 111.296 25.828 111.296 22.0513C111.296 18.2746 114.019 14.5727 118.531 14.5727C121.515 14.5727 123.827 16.4049 124.648 19.0598H130.056C129.273 13.7126 125.058 9.71155 118.382 9.71155C110.998 9.71155 106.075 14.9092 106.075 22.0513C106.075 29.1934 110.998 34.391 118.382 34.391C125.058 34.391 129.273 30.4648 130.056 25.0427Z" fill="#2B3131"/>
</g>
<path d="M16.0808 47.036C17.4901 47.092 18.5215 47.4 19.1748 47.96C19.8375 48.52 20.1688 49.2807 20.1688 50.242C20.1688 50.6713 20.0941 51.068 19.9448 51.432C19.8048 51.796 19.5855 52.1087 19.2868 52.37C18.9975 52.6313 18.6288 52.8367 18.1808 52.986C17.7328 53.1353 17.2008 53.21 16.5848 53.21C16.3421 53.21 16.0948 53.1913 15.8428 53.154C15.5908 53.1167 15.3575 53.07 15.1428 53.014C14.9281 52.958 14.7368 52.902 14.5688 52.846C14.4008 52.79 14.2795 52.7433 14.2048 52.706L14.4568 51.572C14.6155 51.6467 14.8721 51.7447 15.2268 51.866C15.5908 51.9873 16.0341 52.048 16.5568 52.048C16.9768 52.048 17.3268 52.0013 17.6068 51.908C17.8961 51.8147 18.1295 51.6887 18.3068 51.53C18.4841 51.3713 18.6101 51.1893 18.6848 50.984C18.7688 50.7693 18.8108 50.5453 18.8108 50.312C18.8108 49.9573 18.7501 49.6447 18.6288 49.374C18.5075 49.094 18.2928 48.8607 17.9848 48.674C17.6768 48.4873 17.2661 48.3473 16.7528 48.254C16.2395 48.1513 15.5908 48.1 14.8068 48.1C14.8628 47.6427 14.9048 47.2133 14.9328 46.812C14.9701 46.4107 15.0028 46.0187 15.0308 45.636C15.0588 45.2533 15.0821 44.8753 15.1008 44.502C15.1195 44.1193 15.1381 43.718 15.1568 43.298H19.8328V44.404H16.2908C16.2815 44.544 16.2675 44.7353 16.2488 44.978C16.2301 45.2113 16.2115 45.4587 16.1928 45.72C16.1741 45.972 16.1555 46.2193 16.1368 46.462C16.1181 46.7047 16.0995 46.896 16.0808 47.036ZM23.8571 52.244C23.8571 52.496 23.7731 52.7153 23.6051 52.902C23.4371 53.0887 23.2085 53.182 22.9191 53.182C22.6298 53.182 22.4011 53.0887 22.2331 52.902C22.0651 52.7153 21.9811 52.496 21.9811 52.244C21.9811 51.992 22.0651 51.7727 22.2331 51.586C22.4011 51.3993 22.6298 51.306 22.9191 51.306C23.2085 51.306 23.4371 51.3993 23.6051 51.586C23.7731 51.7727 23.8571 51.992 23.8571 52.244ZM25.3425 48.142C25.3425 46.518 25.6271 45.2673 26.1965 44.39C26.7751 43.5127 27.5731 43.074 28.5905 43.074C29.6078 43.074 30.4011 43.5127 30.9705 44.39C31.5491 45.2673 31.8385 46.518 31.8385 48.142C31.8385 49.766 31.5491 51.0167 30.9705 51.894C30.4011 52.7713 29.6078 53.21 28.5905 53.21C27.5731 53.21 26.7751 52.7713 26.1965 51.894C25.6271 51.0167 25.3425 49.766 25.3425 48.142ZM30.4665 48.142C30.4665 47.61 30.4338 47.106 30.3685 46.63C30.3125 46.154 30.2098 45.7387 30.0605 45.384C29.9205 45.0293 29.7291 44.7493 29.4865 44.544C29.2438 44.3293 28.9451 44.222 28.5905 44.222C28.2358 44.222 27.9371 44.3293 27.6945 44.544C27.4518 44.7493 27.2558 45.0293 27.1065 45.384C26.9665 45.7387 26.8638 46.154 26.7985 46.63C26.7425 47.106 26.7145 47.61 26.7145 48.142C26.7145 48.674 26.7425 49.178 26.7985 49.654C26.8638 50.13 26.9665 50.5453 27.1065 50.9C27.2558 51.2547 27.4518 51.5393 27.6945 51.754C27.9371 51.9593 28.2358 52.062 28.5905 52.062C28.9451 52.062 29.2438 51.9593 29.4865 51.754C29.7291 51.5393 29.9205 51.2547 30.0605 50.9C30.2098 50.5453 30.3125 50.13 30.3685 49.654C30.4338 49.178 30.4665 48.674 30.4665 48.142Z" fill="#2B3131"/>
<path d="M39.2948 42L40.6419 46.1459H45.0011L41.4744 48.7082L42.8215 52.8541L39.2948 50.2918L35.7681 52.8541L37.1152 48.7082L33.5885 46.1459H37.9477L39.2948 42Z" fill="#FBBC05"/>
<path d="M51.2948 42L52.6419 46.1459H57.0011L53.4744 48.7082L54.8215 52.8541L51.2948 50.2918L47.7681 52.8541L49.1152 48.7082L45.5885 46.1459H49.9477L51.2948 42Z" fill="#FBBC05"/>
<path d="M63.2948 42L64.6419 46.1459H69.0011L65.4744 48.7082L66.8215 52.8541L63.2948 50.2918L59.7681 52.8541L61.1152 48.7082L57.5885 46.1459H61.9477L63.2948 42Z" fill="#FBBC05"/>
<path d="M75.2948 42L76.6419 46.1459H81.0011L77.4744 48.7082L78.8215 52.8541L75.2948 50.2918L71.7681 52.8541L73.1152 48.7082L69.5885 46.1459H73.9477L75.2948 42Z" fill="#FBBC05"/>
<path d="M87.2948 42L88.6419 46.1459H93.0011L89.4744 48.7082L90.8215 52.8541L87.2948 50.2918L83.7681 52.8541L85.1152 48.7082L81.5885 46.1459H85.9477L87.2948 42Z" fill="#FBBC05"/>
<path d="M95.6888 48.814C95.6888 50.0087 95.8615 51.1147 96.2068 52.132C96.5521 53.1493 97.0608 54.092 97.7328 54.96L96.8088 55.59C96.0808 54.7033 95.4928 53.686 95.0448 52.538C94.6061 51.3807 94.3868 50.1393 94.3868 48.814C94.3868 47.4887 94.6061 46.252 95.0448 45.104C95.4928 43.9467 96.0808 42.9247 96.8088 42.038L97.7328 42.668C97.0608 43.536 96.5521 44.4787 96.2068 45.496C95.8615 46.5133 95.6888 47.6193 95.6888 48.814ZM100.998 52.048C101.829 52.048 102.421 51.8847 102.776 51.558C103.14 51.2313 103.322 50.7927 103.322 50.242C103.322 49.8873 103.247 49.5887 103.098 49.346C102.949 49.1033 102.753 48.912 102.51 48.772C102.267 48.6227 101.983 48.52 101.656 48.464C101.339 48.3987 101.012 48.366 100.676 48.366H100.34V47.302H100.802C101.035 47.302 101.273 47.2787 101.516 47.232C101.768 47.1853 101.997 47.1013 102.202 46.98C102.407 46.8587 102.575 46.6953 102.706 46.49C102.837 46.2753 102.902 46.0093 102.902 45.692C102.902 45.4307 102.855 45.2067 102.762 45.02C102.669 44.8333 102.543 44.6793 102.384 44.558C102.235 44.4367 102.057 44.3527 101.852 44.306C101.656 44.25 101.446 44.222 101.222 44.222C100.774 44.222 100.391 44.2873 100.074 44.418C99.7659 44.5487 99.5045 44.684 99.2899 44.824L98.7859 43.83C98.8979 43.7553 99.0379 43.676 99.2059 43.592C99.3832 43.4987 99.5792 43.4147 99.7939 43.34C100.009 43.2653 100.237 43.2047 100.48 43.158C100.732 43.102 100.993 43.074 101.264 43.074C101.777 43.074 102.221 43.1393 102.594 43.27C102.967 43.3913 103.275 43.5687 103.518 43.802C103.761 44.026 103.943 44.2967 104.064 44.614C104.185 44.922 104.246 45.258 104.246 45.622C104.246 46.126 104.101 46.56 103.812 46.924C103.523 47.2787 103.173 47.5493 102.762 47.736C103.014 47.8107 103.257 47.918 103.49 48.058C103.723 48.198 103.924 48.3753 104.092 48.59C104.269 48.8047 104.409 49.052 104.512 49.332C104.624 49.612 104.68 49.9247 104.68 50.27C104.68 50.69 104.605 51.082 104.456 51.446C104.316 51.8007 104.092 52.1087 103.784 52.37C103.485 52.6313 103.107 52.8367 102.65 52.986C102.193 53.1353 101.651 53.21 101.026 53.21C100.783 53.21 100.531 53.1913 100.27 53.154C100.018 53.1167 99.7799 53.07 99.5559 53.014C99.3319 52.958 99.1359 52.902 98.9679 52.846C98.7999 52.79 98.6785 52.7433 98.6039 52.706L98.8559 51.572C99.0145 51.6467 99.2759 51.7447 99.6399 51.866C100.013 51.9873 100.466 52.048 100.998 52.048ZM108.018 53C108.074 52.2533 108.205 51.4693 108.41 50.648C108.625 49.8173 108.886 49.0147 109.194 48.24C109.502 47.456 109.838 46.7327 110.202 46.07C110.576 45.398 110.94 44.852 111.294 44.432H106.576V43.298H112.75V44.376C112.442 44.7307 112.102 45.2207 111.728 45.846C111.355 46.462 111 47.1573 110.664 47.932C110.338 48.6973 110.053 49.5187 109.81 50.396C109.577 51.264 109.432 52.132 109.376 53H108.018ZM115.781 48.814C115.781 47.6193 115.608 46.5133 115.263 45.496C114.917 44.4787 114.409 43.536 113.737 42.668L114.661 42.038C115.389 42.9247 115.972 43.9467 116.411 45.104C116.859 46.252 117.083 47.4887 117.083 48.814C117.083 50.1393 116.859 51.3807 116.411 52.538C115.972 53.686 115.389 54.7033 114.661 55.59L113.737 54.96C114.409 54.092 114.917 53.1493 115.263 52.132C115.608 51.1147 115.781 50.0087 115.781 48.814Z" fill="#2B3131"/>
<defs>
<clipPath id="clip0_1244_2763">
<rect width="131.282" height="40" fill="white" transform="translate(0.153809)"/>
</clipPath>
</defs>
</svg>
