<svg width="122" height="56" viewBox="0 0 122 56" fill="none" xmlns="http://www.w3.org/2000/svg">
<g clip-path="url(#clip0_1244_2750)">
<path fill-rule="evenodd" clip-rule="evenodd" d="M29.9462 14.1943H15.8387V18.3578H25.8439C25.3495 24.1978 20.4663 26.6892 15.857 26.6892C9.95987 26.6892 4.81286 22.0721 4.81286 15.6012C4.81286 9.30405 9.71896 4.44691 15.8696 4.44691C20.6158 4.44691 23.412 7.45833 23.412 7.45833L26.3429 4.44119C26.3429 4.44119 22.5808 0.273193 15.72 0.273193C6.98332 0.273193 0.22644 7.61033 0.22644 15.5349C0.22644 23.2995 6.58257 30.8721 15.9426 30.8721C24.1747 30.8721 30.2031 25.2606 30.2031 16.9635C30.2031 15.2115 29.9519 14.1978 29.9519 14.1978L29.9462 14.1943Z" fill="#2B3131"/>
<path fill-rule="evenodd" clip-rule="evenodd" d="M41.5007 11.1772C35.712 11.1772 31.5652 15.6801 31.5652 20.9304C31.5652 26.2595 35.5887 30.8458 41.5692 30.8458C46.9834 30.8458 51.4191 26.7281 51.4191 21.0458C51.4191 14.5315 46.2584 11.1772 41.5007 11.1772ZM41.5578 15.0401C44.4053 15.0401 47.1021 17.3292 47.1021 21.0195C47.1021 24.631 44.4167 26.9852 41.5452 26.9852C38.3906 26.9852 35.9027 24.471 35.9027 20.991C35.9027 17.5852 38.3597 15.0401 41.5578 15.0401Z" fill="#2B3131"/>
<path fill-rule="evenodd" clip-rule="evenodd" d="M63.1107 11.1772C57.322 11.1772 53.1752 15.6801 53.1752 20.9304C53.1752 26.2595 57.2056 30.8458 63.186 30.8458C68.6002 30.8458 73.0359 26.7281 73.0359 21.0458C73.0359 14.5315 67.8752 11.1772 63.1187 11.1772H63.1107ZM63.1678 15.0401C66.0153 15.0401 68.7121 17.3292 68.7121 21.0195C68.7121 24.631 66.0199 26.9852 63.1518 26.9852C59.9937 26.9852 57.5115 24.471 57.5115 20.991C57.5115 17.5852 59.9663 15.0401 63.1632 15.0401H63.1678Z" fill="#2B3131"/>
<path fill-rule="evenodd" clip-rule="evenodd" d="M84.3073 11.1886C78.9947 11.1886 74.8193 15.8172 74.8193 21.0137C74.8193 26.9337 79.6604 30.8595 84.216 30.8595C87.0327 30.8595 88.5318 29.7463 89.6358 28.4709V30.408C89.6358 33.8023 87.5658 35.8332 84.4409 35.8332C81.4209 35.8332 79.9081 33.6 79.3806 32.3326L75.582 33.9189C76.9293 36.7532 79.6421 39.7109 84.4717 39.7109C89.7546 39.7109 93.7804 36.4023 93.7804 29.4595V11.7795H89.6358V13.448C88.3616 12.08 86.6193 11.1886 84.3073 11.1886ZM84.6921 15.0423C87.2953 15.0423 89.9704 17.256 89.9704 21.0343C89.9704 24.8766 87.3021 26.9932 84.6338 26.9932C81.8023 26.9932 79.1648 24.6983 79.1648 21.064C79.1648 17.288 81.9028 15.0355 84.6909 15.0355L84.6921 15.0423Z" fill="#2B3131"/>
<path fill-rule="evenodd" clip-rule="evenodd" d="M112.206 11.1635C107.194 11.1635 102.986 15.1315 102.986 20.9852C102.986 27.1795 107.677 30.8537 112.687 30.8537C116.869 30.8537 119.434 28.5772 120.967 26.5372L117.551 24.2743C116.663 25.6457 115.181 26.9829 112.707 26.9829C109.929 26.9829 108.652 25.4686 107.86 24.0023L121.113 18.5303L120.425 16.9269C119.144 13.7932 116.159 11.1669 112.205 11.1669L112.206 11.1635ZM112.377 14.9463C114.183 14.9463 115.483 15.9017 116.035 17.0469L107.185 20.7269C106.803 17.8777 109.517 14.9463 112.38 14.9463H112.377Z" fill="#2B3131"/>
<path fill-rule="evenodd" clip-rule="evenodd" d="M96.6678 30.2698H101.021V1.28235H96.6678V30.2698Z" fill="#2B3131"/>
</g>
<path d="M10.927 47.036C12.3363 47.092 13.3677 47.4 14.021 47.96C14.6837 48.52 15.015 49.2807 15.015 50.242C15.015 50.6713 14.9403 51.068 14.791 51.432C14.651 51.796 14.4317 52.1087 14.133 52.37C13.8437 52.6313 13.475 52.8367 13.027 52.986C12.579 53.1353 12.047 53.21 11.431 53.21C11.1883 53.21 10.941 53.1913 10.689 53.154C10.437 53.1167 10.2037 53.07 9.98899 53.014C9.77432 52.958 9.58299 52.902 9.41499 52.846C9.24699 52.79 9.12566 52.7433 9.05099 52.706L9.30299 51.572C9.46166 51.6467 9.71832 51.7447 10.073 51.866C10.437 51.9873 10.8803 52.048 11.403 52.048C11.823 52.048 12.173 52.0013 12.453 51.908C12.7423 51.8147 12.9757 51.6887 13.153 51.53C13.3303 51.3713 13.4563 51.1893 13.531 50.984C13.615 50.7693 13.657 50.5453 13.657 50.312C13.657 49.9573 13.5963 49.6447 13.475 49.374C13.3537 49.094 13.139 48.8607 12.831 48.674C12.523 48.4873 12.1123 48.3473 11.599 48.254C11.0857 48.1513 10.437 48.1 9.65299 48.1C9.70899 47.6427 9.75099 47.2133 9.77899 46.812C9.81632 46.4107 9.84899 46.0187 9.87699 45.636C9.90499 45.2533 9.92832 44.8753 9.94699 44.502C9.96566 44.1193 9.98432 43.718 10.003 43.298H14.679V44.404H11.137C11.1277 44.544 11.1137 44.7353 11.095 44.978C11.0763 45.2113 11.0577 45.4587 11.039 45.72C11.0203 45.972 11.0017 46.2193 10.983 46.462C10.9643 46.7047 10.9457 46.896 10.927 47.036ZM18.7033 52.244C18.7033 52.496 18.6193 52.7153 18.4513 52.902C18.2833 53.0887 18.0547 53.182 17.7653 53.182C17.476 53.182 17.2473 53.0887 17.0793 52.902C16.9113 52.7153 16.8273 52.496 16.8273 52.244C16.8273 51.992 16.9113 51.7727 17.0793 51.586C17.2473 51.3993 17.476 51.306 17.7653 51.306C18.0547 51.306 18.2833 51.3993 18.4513 51.586C18.6193 51.7727 18.7033 51.992 18.7033 52.244ZM20.1886 48.142C20.1886 46.518 20.4733 45.2673 21.0426 44.39C21.6213 43.5127 22.4193 43.074 23.4366 43.074C24.454 43.074 25.2473 43.5127 25.8166 44.39C26.3953 45.2673 26.6846 46.518 26.6846 48.142C26.6846 49.766 26.3953 51.0167 25.8166 51.894C25.2473 52.7713 24.454 53.21 23.4366 53.21C22.4193 53.21 21.6213 52.7713 21.0426 51.894C20.4733 51.0167 20.1886 49.766 20.1886 48.142ZM25.3126 48.142C25.3126 47.61 25.28 47.106 25.2146 46.63C25.1586 46.154 25.056 45.7387 24.9066 45.384C24.7666 45.0293 24.5753 44.7493 24.3326 44.544C24.09 44.3293 23.7913 44.222 23.4366 44.222C23.082 44.222 22.7833 44.3293 22.5406 44.544C22.298 44.7493 22.102 45.0293 21.9526 45.384C21.8126 45.7387 21.71 46.154 21.6446 46.63C21.5886 47.106 21.5606 47.61 21.5606 48.142C21.5606 48.674 21.5886 49.178 21.6446 49.654C21.71 50.13 21.8126 50.5453 21.9526 50.9C22.102 51.2547 22.298 51.5393 22.5406 51.754C22.7833 51.9593 23.082 52.062 23.4366 52.062C23.7913 52.062 24.09 51.9593 24.3326 51.754C24.5753 51.5393 24.7666 51.2547 24.9066 50.9C25.056 50.5453 25.1586 50.13 25.2146 49.654C25.28 49.178 25.3126 48.674 25.3126 48.142Z" fill="#2B3131"/>
<path d="M34.141 42L35.4881 46.1459H39.8473L36.3206 48.7082L37.6677 52.8541L34.141 50.2918L30.6143 52.8541L31.9614 48.7082L28.4347 46.1459H32.7939L34.141 42Z" fill="#FBBC05"/>
<path d="M46.141 42L47.4881 46.1459H51.8473L48.3206 48.7082L49.6677 52.8541L46.141 50.2918L42.6143 52.8541L43.9614 48.7082L40.4347 46.1459H44.7939L46.141 42Z" fill="#FBBC05"/>
<path d="M58.141 42L59.4881 46.1459H63.8473L60.3206 48.7082L61.6677 52.8541L58.141 50.2918L54.6143 52.8541L55.9614 48.7082L52.4347 46.1459H56.7939L58.141 42Z" fill="#FBBC05"/>
<path d="M70.141 42L71.4881 46.1459H75.8473L72.3206 48.7082L73.6677 52.8541L70.141 50.2918L66.6143 52.8541L67.9614 48.7082L64.4347 46.1459H68.7939L70.141 42Z" fill="#FBBC05"/>
<path d="M82.141 42L83.4881 46.1459H87.8473L84.3206 48.7082L85.6677 52.8541L82.141 50.2918L78.6143 52.8541L79.9614 48.7082L76.4347 46.1459H80.7939L82.141 42Z" fill="#FBBC05"/>
<path d="M90.535 48.814C90.535 50.0087 90.7077 51.1147 91.053 52.132C91.3983 53.1493 91.907 54.092 92.579 54.96L91.655 55.59C90.927 54.7033 90.339 53.686 89.891 52.538C89.4523 51.3807 89.233 50.1393 89.233 48.814C89.233 47.4887 89.4523 46.252 89.891 45.104C90.339 43.9467 90.927 42.9247 91.655 42.038L92.579 42.668C91.907 43.536 91.3983 44.4787 91.053 45.496C90.7077 46.5133 90.535 47.6193 90.535 48.814ZM95.8441 52.048C96.6747 52.048 97.2674 51.8847 97.6221 51.558C97.9861 51.2313 98.1681 50.7927 98.1681 50.242C98.1681 49.8873 98.0934 49.5887 97.9441 49.346C97.7947 49.1033 97.5987 48.912 97.3561 48.772C97.1134 48.6227 96.8287 48.52 96.5021 48.464C96.1847 48.3987 95.8581 48.366 95.5221 48.366H95.1861V47.302H95.6481C95.8814 47.302 96.1194 47.2787 96.3621 47.232C96.6141 47.1853 96.8427 47.1013 97.0481 46.98C97.2534 46.8587 97.4214 46.6953 97.5521 46.49C97.6827 46.2753 97.7481 46.0093 97.7481 45.692C97.7481 45.4307 97.7014 45.2067 97.6081 45.02C97.5147 44.8333 97.3887 44.6793 97.2301 44.558C97.0807 44.4367 96.9034 44.3527 96.6981 44.306C96.5021 44.25 96.2921 44.222 96.0681 44.222C95.6201 44.222 95.2374 44.2873 94.9201 44.418C94.6121 44.5487 94.3507 44.684 94.1361 44.824L93.6321 43.83C93.7441 43.7553 93.8841 43.676 94.0521 43.592C94.2294 43.4987 94.4254 43.4147 94.6401 43.34C94.8547 43.2653 95.0834 43.2047 95.3261 43.158C95.5781 43.102 95.8394 43.074 96.1101 43.074C96.6234 43.074 97.0667 43.1393 97.4401 43.27C97.8134 43.3913 98.1214 43.5687 98.3641 43.802C98.6067 44.026 98.7887 44.2967 98.9101 44.614C99.0314 44.922 99.0921 45.258 99.0921 45.622C99.0921 46.126 98.9474 46.56 98.6581 46.924C98.3687 47.2787 98.0187 47.5493 97.6081 47.736C97.8601 47.8107 98.1027 47.918 98.3361 48.058C98.5694 48.198 98.7701 48.3753 98.9381 48.59C99.1154 48.8047 99.2554 49.052 99.3581 49.332C99.4701 49.612 99.5261 49.9247 99.5261 50.27C99.5261 50.69 99.4514 51.082 99.3021 51.446C99.1621 51.8007 98.9381 52.1087 98.6301 52.37C98.3314 52.6313 97.9534 52.8367 97.4961 52.986C97.0387 53.1353 96.4974 53.21 95.8721 53.21C95.6294 53.21 95.3774 53.1913 95.1161 53.154C94.8641 53.1167 94.6261 53.07 94.4021 53.014C94.1781 52.958 93.9821 52.902 93.8141 52.846C93.6461 52.79 93.5247 52.7433 93.4501 52.706L93.7021 51.572C93.8607 51.6467 94.1221 51.7447 94.4861 51.866C94.8594 51.9873 95.3121 52.048 95.8441 52.048ZM102.864 53C102.92 52.2533 103.051 51.4693 103.256 50.648C103.471 49.8173 103.732 49.0147 104.04 48.24C104.348 47.456 104.684 46.7327 105.048 46.07C105.422 45.398 105.786 44.852 106.14 44.432H101.422V43.298H107.596V44.376C107.288 44.7307 106.948 45.2207 106.574 45.846C106.201 46.462 105.846 47.1573 105.51 47.932C105.184 48.6973 104.899 49.5187 104.656 50.396C104.423 51.264 104.278 52.132 104.222 53H102.864ZM110.627 48.814C110.627 47.6193 110.454 46.5133 110.109 45.496C109.763 44.4787 109.255 43.536 108.583 42.668L109.507 42.038C110.235 42.9247 110.818 43.9467 111.257 45.104C111.705 46.252 111.929 47.4887 111.929 48.814C111.929 50.1393 111.705 51.3807 111.257 52.538C110.818 53.686 110.235 54.7033 109.507 55.59L108.583 54.96C109.255 54.092 109.763 53.1493 110.109 52.132C110.454 51.1147 110.627 50.0087 110.627 48.814Z" fill="#2B3131"/>
<defs>
<clipPath id="clip0_1244_2750">
<rect width="121.026" height="40" fill="white" transform="translate(0.128174)"/>
</clipPath>
</defs>
</svg>
