<svg width="76" height="76" viewBox="0 0 76 76" fill="none" xmlns="http://www.w3.org/2000/svg">
<g filter="url(#filter0_d_1022_15558)">
<rect x="8" y="8" width="60" height="60" rx="30" fill="#7C509A"/>
<path d="M47.3809 22.3189C41.6636 21.227 35.7264 21.227 30.0092 22.3189C27.4804 22.8648 24.2919 25.9219 23.7421 28.3239C22.7526 33.0188 22.7526 37.8228 23.7421 42.5177C24.4018 44.9197 27.5903 47.9768 30.0092 48.5227C30.1191 48.5227 30.2291 48.6319 30.2291 48.7411V55.6196C30.2291 55.9472 30.6688 56.1655 30.8887 55.838L34.1872 52.4533C34.1872 52.4533 36.8259 49.7237 37.2657 49.287C37.2657 49.287 37.3757 49.1778 37.4856 49.1778C40.784 49.287 44.1924 48.9595 47.4908 48.4135C50.0196 47.8676 53.2081 44.8105 53.7579 42.4085C54.7474 37.7136 54.7474 32.9096 53.7579 28.2147C53.0982 25.9219 49.9097 22.8648 47.3809 22.3189ZM47.4908 42.8452C46.9411 43.9371 46.2814 44.8105 45.1819 45.3564C44.8521 45.4656 44.5223 45.5748 44.1924 45.684C43.7526 45.5748 43.4228 45.4656 43.0929 45.3564C39.5746 43.9371 36.2762 41.9718 33.6374 39.133C32.2081 37.4953 30.9987 35.6392 30.0092 33.6739C29.5694 32.6912 29.1296 31.8178 28.7997 30.8351C28.4699 29.9617 29.0196 29.0882 29.5694 28.4331C30.1191 27.778 30.7788 27.3413 31.5484 27.0137C32.0982 26.6862 32.6479 26.9045 33.0877 27.3413C33.9673 28.4331 34.8469 29.5249 35.5065 30.7259C35.9463 31.4902 35.8364 32.3637 35.0668 32.9096C34.8469 33.0188 34.7369 33.128 34.517 33.3463C34.4071 33.4555 34.1872 33.5647 34.0772 33.7831C33.8573 34.1106 33.8573 34.4382 33.9673 34.7657C34.8469 37.2769 36.4961 39.2422 39.0249 40.334C39.4647 40.5524 39.7945 40.6616 40.3442 40.6616C41.1139 40.5524 41.4437 39.6789 41.9935 39.2422C42.5432 38.8055 43.2029 38.8055 43.8626 39.133C44.4123 39.4606 44.962 39.8973 45.6217 40.334C46.1715 40.7708 46.7212 41.0983 47.2709 41.535C47.6008 41.7534 47.7107 42.2993 47.4908 42.8452ZM42.873 34.6565C42.6531 34.6565 42.7631 34.6565 42.873 34.6565C42.4332 34.6565 42.3233 34.4382 42.2133 34.1106C42.2133 33.8922 42.2133 33.5647 42.1034 33.3463C41.9935 32.9096 41.7736 32.4729 41.3338 32.1453C41.1139 32.0361 40.894 31.927 40.6741 31.8178C40.3442 31.7086 40.1243 31.7086 39.7945 31.7086C39.4647 31.5994 39.3547 31.381 39.3547 31.0535C39.3547 30.8351 39.6846 30.6168 39.9044 30.6168C41.6636 30.7259 42.983 31.7086 43.2029 33.7831C43.2029 33.8922 43.2029 34.1106 43.2029 34.2198C43.2029 34.4382 43.0929 34.6565 42.873 34.6565ZM41.7736 29.8525C41.2238 29.6341 40.6741 29.4157 40.0144 29.3066C39.7945 29.3066 39.4647 29.1974 39.2448 29.1974C38.9149 29.1974 38.695 28.979 38.805 28.6515C38.805 28.3239 39.0249 28.1056 39.3547 28.2147C40.4542 28.3239 41.4437 28.5423 42.4332 28.979C44.4123 29.9617 45.5118 31.5994 45.8416 33.7831C45.8416 33.8922 45.8416 34.0014 45.8416 34.1106C45.8416 34.329 45.8416 34.5473 45.8416 34.8749C45.8416 34.9841 45.8416 35.0933 45.8416 35.2024C45.7317 35.6392 44.962 35.7483 44.8521 35.2024C44.8521 35.0933 44.7421 34.8749 44.7421 34.7657C44.7421 33.7831 44.5223 32.8004 44.0825 31.927C43.4228 30.9443 42.6531 30.2892 41.7736 29.8525ZM47.7107 36.4034C47.3809 36.4034 47.161 36.0759 47.161 35.7483C47.161 35.0933 47.051 34.4382 46.9411 33.7831C46.5013 30.2892 43.6427 27.4505 40.2343 26.9045C39.6846 26.7954 39.1348 26.7954 38.695 26.6862C38.3652 26.6862 37.9254 26.6862 37.8154 26.2494C37.7055 25.9219 38.0353 25.5944 38.3652 25.5944C38.4751 25.5944 38.5851 25.5944 38.5851 25.5944C38.805 25.5944 43.0929 25.7035 38.5851 25.5944C43.2029 25.7035 47.051 28.7607 47.8207 33.3463C47.9306 34.1106 48.0406 34.8749 48.0406 35.7483C48.2605 36.0759 48.0406 36.4034 47.7107 36.4034Z" fill="white"/>
</g>
<defs>
<filter id="filter0_d_1022_15558" x="0" y="0" width="76" height="76" filterUnits="userSpaceOnUse" color-interpolation-filters="sRGB">
<feFlood flood-opacity="0" result="BackgroundImageFix"/>
<feColorMatrix in="SourceAlpha" type="matrix" values="0 0 0 0 0 0 0 0 0 0 0 0 0 0 0 0 0 0 127 0" result="hardAlpha"/>
<feOffset/>
<feGaussianBlur stdDeviation="4"/>
<feComposite in2="hardAlpha" operator="out"/>
<feColorMatrix type="matrix" values="0 0 0 0 0 0 0 0 0 0 0 0 0 0 0 0 0 0 0.3 0"/>
<feBlend mode="normal" in2="BackgroundImageFix" result="effect1_dropShadow_1022_15558"/>
<feBlend mode="normal" in="SourceGraphic" in2="effect1_dropShadow_1022_15558" result="shape"/>
</filter>
</defs>
</svg>
