<svg width="76" height="76" viewBox="0 0 76 76" fill="none" xmlns="http://www.w3.org/2000/svg">
<g filter="url(#filter0_d_1022_15557)">
<rect x="8" y="8" width="60" height="60" rx="30" fill="#48C95F"/>
<path d="M49.8902 26.0937C46.9268 23.1406 42.9756 21.5 38.8049 21.5C30.1341 21.5 23.1098 28.5 23.1098 37.1406C23.1098 39.875 23.878 42.6094 25.1951 44.9062L23 53L31.3415 50.8125C33.6463 52.0156 36.1707 52.6719 38.8049 52.6719C47.4756 52.6719 54.5 45.6719 54.5 37.0313C54.3902 32.9844 52.8537 29.0469 49.8902 26.0937ZM46.378 42.7187C46.0488 43.5937 44.5122 44.4687 43.7439 44.5781C43.0854 44.6875 42.2073 44.6875 41.3293 44.4688C40.7805 44.25 40.0122 44.0312 39.1341 43.5938C35.1829 41.9531 32.6585 38.0156 32.439 37.6875C32.2195 37.4687 30.7927 35.6094 30.7927 33.6406C30.7927 31.6719 31.7805 30.7969 32.1098 30.3594C32.439 29.9219 32.878 29.9219 33.2073 29.9219C33.4268 29.9219 33.7561 29.9219 33.9756 29.9219C34.1951 29.9219 34.5244 29.8125 34.8537 30.5781C35.1829 31.3437 35.9512 33.3125 36.061 33.4219C36.1707 33.6406 36.1707 33.8594 36.061 34.0781C35.9512 34.2969 35.8415 34.5156 35.6219 34.7344C35.4024 34.9531 35.1829 35.2812 35.0732 35.3906C34.8537 35.6094 34.6341 35.8281 34.8537 36.1562C35.0732 36.5937 35.8415 37.7969 37.0488 38.8906C38.5854 40.2031 39.7927 40.6406 40.2317 40.8594C40.6707 41.0781 40.8902 40.9687 41.1098 40.75C41.3293 40.5312 42.0976 39.6562 42.3171 39.2188C42.5366 38.7812 42.8659 38.8906 43.1951 39C43.5244 39.1094 45.5 40.0938 45.8293 40.3125C46.2683 40.5312 46.4878 40.6406 46.5976 40.75C46.7073 41.0781 46.7073 41.8437 46.378 42.7187Z" fill="white"/>
</g>
<defs>
<filter id="filter0_d_1022_15557" x="0" y="0" width="76" height="76" filterUnits="userSpaceOnUse" color-interpolation-filters="sRGB">
<feFlood flood-opacity="0" result="BackgroundImageFix"/>
<feColorMatrix in="SourceAlpha" type="matrix" values="0 0 0 0 0 0 0 0 0 0 0 0 0 0 0 0 0 0 127 0" result="hardAlpha"/>
<feOffset/>
<feGaussianBlur stdDeviation="4"/>
<feComposite in2="hardAlpha" operator="out"/>
<feColorMatrix type="matrix" values="0 0 0 0 0 0 0 0 0 0 0 0 0 0 0 0 0 0 0.3 0"/>
<feBlend mode="normal" in2="BackgroundImageFix" result="effect1_dropShadow_1022_15557"/>
<feBlend mode="normal" in="SourceGraphic" in2="effect1_dropShadow_1022_15557" result="shape"/>
</filter>
</defs>
</svg>
