<svg width="76" height="76" viewBox="0 0 76 76" fill="none" xmlns="http://www.w3.org/2000/svg">
<g filter="url(#filter0_d_1022_15556)">
<rect x="8" y="8" width="60" height="60" rx="30" fill="#27A6E5"/>
<path d="M50 26.9033L45.4919 50.4384C45.4919 50.4384 44.8611 52.0702 43.1283 51.2876L32.7269 43.0289L32.6786 43.0045C34.0836 41.6981 44.9786 31.554 45.4548 31.0942C46.1919 30.382 45.7343 29.9581 44.8784 30.496L28.7852 41.0795L22.5765 38.9161C22.5765 38.9161 21.5994 38.5562 21.5054 37.7737C21.4102 36.9898 22.6086 36.5658 22.6086 36.5658L47.9197 26.2834C47.9197 26.2834 50 25.3369 50 26.9033Z" fill="white"/>
</g>
<defs>
<filter id="filter0_d_1022_15556" x="0" y="0" width="76" height="76" filterUnits="userSpaceOnUse" color-interpolation-filters="sRGB">
<feFlood flood-opacity="0" result="BackgroundImageFix"/>
<feColorMatrix in="SourceAlpha" type="matrix" values="0 0 0 0 0 0 0 0 0 0 0 0 0 0 0 0 0 0 127 0" result="hardAlpha"/>
<feOffset/>
<feGaussianBlur stdDeviation="4"/>
<feComposite in2="hardAlpha" operator="out"/>
<feColorMatrix type="matrix" values="0 0 0 0 0 0 0 0 0 0 0 0 0 0 0 0 0 0 0.3 0"/>
<feBlend mode="normal" in2="BackgroundImageFix" result="effect1_dropShadow_1022_15556"/>
<feBlend mode="normal" in="SourceGraphic" in2="effect1_dropShadow_1022_15556" result="shape"/>
</filter>
</defs>
</svg>
