<svg width="126" height="56" viewBox="0 0 126 56" fill="none" xmlns="http://www.w3.org/2000/svg">
<path d="M119.298 35.3604C121.753 35.3604 123.492 34.9202 124.787 33.9719V29.671C123.458 30.5854 121.855 31.1611 119.605 31.1611C115.82 31.1611 114.252 28.2487 114.252 23.643C114.252 18.8002 116.161 16.328 119.639 16.328C121.685 16.328 123.696 17.0392 124.753 17.7165V13.2462C123.628 12.6367 121.685 12.1964 119.025 12.1964C112.24 12.1964 108.729 17.0392 108.729 23.8123C108.763 31.2288 112.206 35.3604 119.298 35.3604ZM86.1237 33.3962V29.0953C84.4872 30.2129 81.6914 31.195 79.1343 31.195C75.2475 31.195 73.7814 29.3662 73.5427 25.641H86.3624V22.864C86.3624 15.1088 82.9188 12.1964 77.6341 12.1964C71.1561 12.1964 68.0875 17.1069 68.0875 23.8461C68.0875 31.6013 71.9403 35.3604 78.6911 35.3604C82.0664 35.3604 84.5554 34.446 86.1237 33.3962ZM37.4704 12.6028V21.4078H30.3786V12.6028H25.0598V34.9202H30.3786V25.6071H37.4704V34.9202H42.7892V12.6028H37.4704ZM66.7579 30.7208H64.4053V12.6028H48.9262V14.4993C48.9262 19.9516 48.5853 26.9956 46.7101 30.7208H45.0053V40H49.915V34.9202H61.8141V40H66.7238V30.7208H66.7579ZM103.069 34.9202H109.104L100.58 22.8979L108.081 12.6028H102.728L95.2271 22.8979V12.6028H89.9083V34.9202H95.2271V23.9477L103.069 34.9202ZM77.4977 16.328C80.123 16.328 80.9413 18.4954 80.9413 21.3062V21.7465H73.5427C73.6791 18.1906 74.9747 16.328 77.4977 16.328ZM59.0865 30.7208H51.5856C53.0517 27.3682 53.4608 21.2724 53.4608 17.4117V16.7344H59.0865V30.7208Z" fill="#2B3131"/>
<path d="M20.6274 34.9202H15.2063V8.268H12.7856C8.35324 8.268 6.03479 10.4693 6.03479 13.7542C6.03479 17.4794 7.63725 19.2066 10.9445 21.4078L13.672 23.2366L5.83022 34.9202H0L7.05764 24.4896C3.00035 21.611 0.715992 18.8002 0.715992 14.059C0.715992 8.13253 4.87557 4.10254 12.7515 4.10254H20.5933V34.9202H20.6274Z" fill="#2B3131"/>
<path d="M12.8501 47.036C14.2594 47.092 15.2908 47.4 15.9441 47.96C16.6068 48.52 16.9381 49.2807 16.9381 50.242C16.9381 50.6713 16.8634 51.068 16.7141 51.432C16.5741 51.796 16.3548 52.1087 16.0561 52.37C15.7668 52.6313 15.3981 52.8367 14.9501 52.986C14.5021 53.1353 13.9701 53.21 13.3541 53.21C13.1114 53.21 12.8641 53.1913 12.6121 53.154C12.3601 53.1167 12.1268 53.07 11.9121 53.014C11.6974 52.958 11.5061 52.902 11.3381 52.846C11.1701 52.79 11.0488 52.7433 10.9741 52.706L11.2261 51.572C11.3848 51.6467 11.6414 51.7447 11.9961 51.866C12.3601 51.9873 12.8034 52.048 13.3261 52.048C13.7461 52.048 14.0961 52.0013 14.3761 51.908C14.6654 51.8147 14.8988 51.6887 15.0761 51.53C15.2534 51.3713 15.3794 51.1893 15.4541 50.984C15.5381 50.7693 15.5801 50.5453 15.5801 50.312C15.5801 49.9573 15.5194 49.6447 15.3981 49.374C15.2768 49.094 15.0621 48.8607 14.7541 48.674C14.4461 48.4873 14.0354 48.3473 13.5221 48.254C13.0088 48.1513 12.3601 48.1 11.5761 48.1C11.6321 47.6427 11.6741 47.2133 11.7021 46.812C11.7394 46.4107 11.7721 46.0187 11.8001 45.636C11.8281 45.2533 11.8514 44.8753 11.8701 44.502C11.8888 44.1193 11.9074 43.718 11.9261 43.298H16.6021V44.404H13.0601C13.0508 44.544 13.0368 44.7353 13.0181 44.978C12.9994 45.2113 12.9808 45.4587 12.9621 45.72C12.9434 45.972 12.9248 46.2193 12.9061 46.462C12.8874 46.7047 12.8688 46.896 12.8501 47.036ZM20.6264 52.244C20.6264 52.496 20.5424 52.7153 20.3744 52.902C20.2064 53.0887 19.9778 53.182 19.6884 53.182C19.3991 53.182 19.1704 53.0887 19.0024 52.902C18.8344 52.7153 18.7504 52.496 18.7504 52.244C18.7504 51.992 18.8344 51.7727 19.0024 51.586C19.1704 51.3993 19.3991 51.306 19.6884 51.306C19.9778 51.306 20.2064 51.3993 20.3744 51.586C20.5424 51.7727 20.6264 51.992 20.6264 52.244ZM22.1117 48.142C22.1117 46.518 22.3964 45.2673 22.9657 44.39C23.5444 43.5127 24.3424 43.074 25.3597 43.074C26.3771 43.074 27.1704 43.5127 27.7397 44.39C28.3184 45.2673 28.6077 46.518 28.6077 48.142C28.6077 49.766 28.3184 51.0167 27.7397 51.894C27.1704 52.7713 26.3771 53.21 25.3597 53.21C24.3424 53.21 23.5444 52.7713 22.9657 51.894C22.3964 51.0167 22.1117 49.766 22.1117 48.142ZM27.2357 48.142C27.2357 47.61 27.2031 47.106 27.1377 46.63C27.0817 46.154 26.9791 45.7387 26.8297 45.384C26.6897 45.0293 26.4984 44.7493 26.2557 44.544C26.0131 44.3293 25.7144 44.222 25.3597 44.222C25.0051 44.222 24.7064 44.3293 24.4637 44.544C24.2211 44.7493 24.0251 45.0293 23.8757 45.384C23.7357 45.7387 23.6331 46.154 23.5677 46.63C23.5117 47.106 23.4837 47.61 23.4837 48.142C23.4837 48.674 23.5117 49.178 23.5677 49.654C23.6331 50.13 23.7357 50.5453 23.8757 50.9C24.0251 51.2547 24.2211 51.5393 24.4637 51.754C24.7064 51.9593 25.0051 52.062 25.3597 52.062C25.7144 52.062 26.0131 51.9593 26.2557 51.754C26.4984 51.5393 26.6897 51.2547 26.8297 50.9C26.9791 50.5453 27.0817 50.13 27.1377 49.654C27.2031 49.178 27.2357 48.674 27.2357 48.142Z" fill="#2B3131"/>
<path d="M36.0641 42L37.4112 46.1459H41.7704L38.2437 48.7082L39.5908 52.8541L36.0641 50.2918L32.5374 52.8541L33.8845 48.7082L30.3577 46.1459H34.717L36.0641 42Z" fill="#FBBC05"/>
<path d="M48.0641 42L49.4112 46.1459H53.7704L50.2437 48.7082L51.5908 52.8541L48.0641 50.2918L44.5374 52.8541L45.8845 48.7082L42.3577 46.1459H46.717L48.0641 42Z" fill="#FBBC05"/>
<path d="M60.0641 42L61.4112 46.1459H65.7704L62.2437 48.7082L63.5908 52.8541L60.0641 50.2918L56.5374 52.8541L57.8845 48.7082L54.3577 46.1459H58.717L60.0641 42Z" fill="#FBBC05"/>
<path d="M72.0641 42L73.4112 46.1459H77.7704L74.2437 48.7082L75.5908 52.8541L72.0641 50.2918L68.5374 52.8541L69.8845 48.7082L66.3577 46.1459H70.717L72.0641 42Z" fill="#FBBC05"/>
<path d="M84.0641 42L85.4112 46.1459H89.7704L86.2437 48.7082L87.5908 52.8541L84.0641 50.2918L80.5374 52.8541L81.8845 48.7082L78.3577 46.1459H82.717L84.0641 42Z" fill="#FBBC05"/>
<path d="M92.4581 48.814C92.4581 50.0087 92.6308 51.1147 92.9761 52.132C93.3214 53.1493 93.8301 54.092 94.5021 54.96L93.5781 55.59C92.8501 54.7033 92.2621 53.686 91.8141 52.538C91.3754 51.3807 91.1561 50.1393 91.1561 48.814C91.1561 47.4887 91.3754 46.252 91.8141 45.104C92.2621 43.9467 92.8501 42.9247 93.5781 42.038L94.5021 42.668C93.8301 43.536 93.3214 44.4787 92.9761 45.496C92.6308 46.5133 92.4581 47.6193 92.4581 48.814ZM97.7671 52.048C98.5978 52.048 99.1905 51.8847 99.5451 51.558C99.9091 51.2313 100.091 50.7927 100.091 50.242C100.091 49.8873 100.016 49.5887 99.8671 49.346C99.7178 49.1033 99.5218 48.912 99.2791 48.772C99.0365 48.6227 98.7518 48.52 98.4251 48.464C98.1078 48.3987 97.7811 48.366 97.4451 48.366H97.1091V47.302H97.5711C97.8045 47.302 98.0425 47.2787 98.2851 47.232C98.5371 47.1853 98.7658 47.1013 98.9711 46.98C99.1765 46.8587 99.3445 46.6953 99.4751 46.49C99.6058 46.2753 99.6711 46.0093 99.6711 45.692C99.6711 45.4307 99.6245 45.2067 99.5311 45.02C99.4378 44.8333 99.3118 44.6793 99.1531 44.558C99.0038 44.4367 98.8265 44.3527 98.6211 44.306C98.4251 44.25 98.2151 44.222 97.9911 44.222C97.5431 44.222 97.1605 44.2873 96.8431 44.418C96.5351 44.5487 96.2738 44.684 96.0591 44.824L95.5551 43.83C95.6671 43.7553 95.8071 43.676 95.9751 43.592C96.1525 43.4987 96.3485 43.4147 96.5631 43.34C96.7778 43.2653 97.0065 43.2047 97.2491 43.158C97.5011 43.102 97.7625 43.074 98.0331 43.074C98.5465 43.074 98.9898 43.1393 99.3631 43.27C99.7365 43.3913 100.044 43.5687 100.287 43.802C100.53 44.026 100.712 44.2967 100.833 44.614C100.954 44.922 101.015 45.258 101.015 45.622C101.015 46.126 100.87 46.56 100.581 46.924C100.292 47.2787 99.9418 47.5493 99.5311 47.736C99.7831 47.8107 100.026 47.918 100.259 48.058C100.492 48.198 100.693 48.3753 100.861 48.59C101.038 48.8047 101.178 49.052 101.281 49.332C101.393 49.612 101.449 49.9247 101.449 50.27C101.449 50.69 101.374 51.082 101.225 51.446C101.085 51.8007 100.861 52.1087 100.553 52.37C100.254 52.6313 99.8765 52.8367 99.4191 52.986C98.9618 53.1353 98.4205 53.21 97.7951 53.21C97.5525 53.21 97.3005 53.1913 97.0391 53.154C96.7871 53.1167 96.5491 53.07 96.3251 53.014C96.1011 52.958 95.9051 52.902 95.7371 52.846C95.5691 52.79 95.4478 52.7433 95.3731 52.706L95.6251 51.572C95.7838 51.6467 96.0451 51.7447 96.4091 51.866C96.7825 51.9873 97.2351 52.048 97.7671 52.048ZM104.787 53C104.843 52.2533 104.974 51.4693 105.179 50.648C105.394 49.8173 105.655 49.0147 105.963 48.24C106.271 47.456 106.607 46.7327 106.971 46.07C107.345 45.398 107.709 44.852 108.063 44.432H103.345V43.298H109.519V44.376C109.211 44.7307 108.871 45.2207 108.497 45.846C108.124 46.462 107.769 47.1573 107.433 47.932C107.107 48.6973 106.822 49.5187 106.579 50.396C106.346 51.264 106.201 52.132 106.145 53H104.787ZM112.55 48.814C112.55 47.6193 112.377 46.5133 112.032 45.496C111.687 44.4787 111.178 43.536 110.506 42.668L111.43 42.038C112.158 42.9247 112.741 43.9467 113.18 45.104C113.628 46.252 113.852 47.4887 113.852 48.814C113.852 50.1393 113.628 51.3807 113.18 52.538C112.741 53.686 112.158 54.7033 111.43 55.59L110.506 54.96C111.178 54.092 111.687 53.1493 112.032 52.132C112.377 51.1147 112.55 50.0087 112.55 48.814Z" fill="#2B3131"/>
</svg>
